<svg width="57" height="61" viewBox="0 0 57 61" fill="none" xmlns="http://www.w3.org/2000/svg">
<path d="M21.7627 57.5039C23.0308 58.1833 24.2989 58.8628 25.7439 59.535C26.0977 59.5205 26.2746 59.5133 26.6284 59.4989C26.9822 59.4844 27.1441 59.1122 27.1292 58.7472C29.4027 49.3314 31.7934 38.4483 30.661 28.0747C29.9441 23.5339 28.4097 20.6717 25.7115 19.685C22.4678 18.355 19.0118 20.507 17.3471 23.1342C16.1834 25.0098 15.7347 27.0389 15.4777 29.4259C14.1798 28.0164 12.5431 26.9864 10.9286 26.504C8.05358 25.5245 5.06124 26.0123 3.013 27.924C0.45642 30.4048 0.0896686 34.4415 1.09338 37.3254C2.10454 40.3917 4.15472 42.8673 6.19745 45.1603C11.1972 50.4403 16.3292 54.6181 21.7702 57.6864L21.7627 57.5039ZM25.4627 56.9872C19.1371 53.955 13.2827 49.4411 7.72246 43.4528C5.86407 41.3351 4.00569 39.2173 3.18633 36.5087C2.55877 34.1579 2.61644 31.2306 4.48779 29.3262C5.8508 27.9909 8.143 27.7145 10.2956 28.3578C12.6325 29.1764 14.3065 31.1189 15.4275 32.5356C15.6193 32.8934 16.1575 33.0542 16.5112 33.0398C16.865 33.0253 17.1965 32.4634 17.3585 32.0911C17.593 29.1567 17.8351 26.4048 19.1683 24.3395C20.3246 22.2814 22.9259 20.8956 25.0859 21.7214C27.4303 22.7225 28.2645 25.7961 28.5457 28.3439C29.6483 37.9875 27.7361 47.5714 25.6396 56.98L25.4627 56.9872Z" fill="#FF9BBE"/>
<path d="M57 13C57 13 53.4529 13.4267 51.1705 14.8206C50.3994 15.3042 49.3815 16.3567 48.9188 17.8074C47.7776 21.5908 47.5 26 47.5 26C47.5 26 47.2224 21.5908 46.0812 17.8074C45.6185 16.3567 44.6006 15.2757 43.8295 14.8206C41.5162 13.4267 38 13 38 13C38 13 41.5471 12.5733 43.8295 11.1794C44.6006 10.6958 45.6185 9.64333 46.0812 8.19256C47.2224 4.40919 47.4692 0 47.4692 0C47.4692 0 47.7468 4.40919 48.888 8.19256C49.3506 9.64333 50.3685 10.7243 51.1396 11.1794C53.4529 12.5733 56.9692 13 56.9692 13" fill="#FF9BBE"/>
</svg>
