<svg width="41" height="24" viewBox="0 0 41 24" fill="none" xmlns="http://www.w3.org/2000/svg">
<path d="M10.8718 13.8891C10.7164 13.8891 10.5611 13.8891 10.4057 13.8891C10.3746 13.8891 10.3436 13.8891 10.2814 13.8891C10.1882 13.8891 10.3746 13.8891 10.2814 13.8891C10.1882 13.8891 10.1261 13.8891 10.0328 13.858C9.87749 13.8269 9.72213 13.7959 9.59784 13.7337C9.56677 13.7337 9.41141 13.6716 9.44249 13.6716C9.50463 13.6716 9.41141 13.6716 9.38034 13.6716C9.34927 13.6716 9.28713 13.6405 9.25606 13.6094C9.13177 13.5473 8.97641 13.4541 8.85213 13.3919C8.78998 13.3609 8.72784 13.3298 8.6657 13.2677C8.63463 13.2677 8.60355 13.2055 8.57248 13.1744C8.35498 12.988 8.13748 12.7705 7.95105 12.5219C7.88891 12.4598 8.0132 12.5841 7.95105 12.5219C7.95105 12.5219 7.91998 12.4598 7.88891 12.4287C7.85784 12.3666 7.79569 12.3044 7.76462 12.2423C7.67141 12.118 7.60926 11.9937 7.54712 11.8384C7.54712 11.8073 7.54712 11.7762 7.51605 11.7452C7.51605 11.7452 7.45391 11.6209 7.51605 11.683C7.54712 11.7762 7.48498 11.5898 7.51605 11.6209C7.51605 11.5898 7.51605 11.5587 7.48498 11.5277C7.42284 11.3723 7.39176 11.248 7.36069 11.0927C7.36069 11.0305 7.36069 10.9373 7.32962 10.8752C7.32962 10.8441 7.32962 10.813 7.32962 10.7819C7.32962 10.6266 7.32962 10.4712 7.32962 10.3159C7.32962 10.2537 7.32962 10.1605 7.32962 10.0984C7.32962 10.0673 7.32962 10.0362 7.32962 10.0052C7.32962 9.84979 7.39176 9.69443 7.45391 9.53908C7.45391 9.47693 7.51605 9.38372 7.51605 9.32158C7.51605 9.2905 7.54712 9.25943 7.57819 9.22836C7.64034 9.073 7.73355 8.91765 7.82677 8.76229C7.82677 8.76229 7.95105 8.57586 7.88891 8.66907C7.91998 8.60693 7.98212 8.54479 8.01319 8.51372C8.10641 8.38943 8.2307 8.29622 8.35498 8.17193C8.35498 8.17193 8.54141 8.04764 8.4482 8.10979C8.51034 8.07871 8.57248 8.01657 8.63463 7.9855C8.75891 7.89229 8.91427 7.79907 9.06963 7.73693C9.19391 7.67478 9.34927 7.61264 9.47356 7.5505C9.50463 7.5505 9.5357 7.5505 9.56677 7.51943C9.65999 7.48836 9.7532 7.45728 9.84642 7.42621C10.1571 7.333 10.4678 7.23978 10.8096 7.17764C10.8718 7.17764 10.965 7.17764 11.0271 7.14657C11.0271 7.14657 11.2757 7.1155 11.1514 7.14657C11.3068 7.14657 11.4932 7.1155 11.6796 7.08443C11.9904 7.08443 12.3011 7.08443 12.6118 7.08443C12.7671 7.08443 12.9225 7.08443 13.0468 7.1155C13.0779 7.1155 13.1089 7.1155 13.14 7.1155C13.0468 7.1155 13.2332 7.1155 13.14 7.1155C13.2332 7.1155 13.3575 7.14657 13.4507 7.17764C14.8489 7.42621 16.185 7.768 17.5211 8.29622C18.8572 8.82443 20.1 9.47693 21.3429 10.1294C23.8597 11.4034 26.4386 12.6773 29.2661 12.9259C32.2179 13.1744 35.4494 12.3666 37.5622 10.2227C37.8108 9.94301 38.0594 9.66336 38.2769 9.38372C38.4012 9.19729 38.0904 8.97979 37.9662 9.13515C35.9776 11.5898 32.7772 12.7084 29.6701 12.5219C26.7493 12.3355 24.0772 10.9994 21.5604 9.63229C20.2865 8.94872 19.0125 8.23407 17.7075 7.58157C16.4025 6.92907 15.0354 6.33871 13.575 6.09014C10.9339 5.62406 7.48498 6.33871 6.33533 9.073C5.24783 11.683 7.17426 14.728 9.87749 15.2252C10.2193 15.2873 10.5611 15.3184 10.9028 15.3184C11.2136 15.3184 11.4932 15.0698 11.4932 14.728C11.4932 14.3862 11.2136 14.1377 10.9028 14.1377L10.8718 13.8891Z" fill="#CEA559"/>
<path d="M12.4255 6.24529C14.6627 6.71136 16.7134 7.6435 18.6398 8.82422C20.6284 10.036 22.4616 11.4342 24.357 12.8014C26.3145 14.1996 28.3341 15.5978 30.6024 16.4989C32.622 17.3068 35.0145 17.5243 36.972 16.4057C37.7799 15.9396 38.4635 15.256 38.8363 14.386C39.2713 13.3296 39.2403 12.1178 38.7742 11.0924C38.6499 10.8128 38.4635 10.5642 38.277 10.3157C38.1217 10.0982 37.7488 10.3778 37.9042 10.5953C38.5256 11.5585 38.7431 12.7392 38.3703 13.8267C38.0906 14.6346 37.4381 15.256 36.6924 15.66C34.8902 16.6543 32.7463 16.3435 30.9131 15.6289C29.7945 15.1939 28.7692 14.6035 27.7438 13.9821C26.7806 13.3917 25.8484 12.7703 24.9163 12.1178C23.0831 10.8439 21.2809 9.5078 19.3545 8.38922C17.2416 7.14636 14.9112 6.18314 12.4566 5.93457C12.2702 5.93457 12.208 6.24529 12.4255 6.27636V6.24529Z" fill="#CEA559"/>
<path d="M35.0456 5.09606C34.9213 5.25142 34.7971 5.40678 34.6728 5.56214C34.6417 5.59321 34.5796 5.62428 34.5485 5.65535C34.5485 5.65535 34.4242 5.74856 34.4863 5.71749C34.3931 5.77964 34.331 5.81071 34.2378 5.87285C34.2378 5.87285 34.0824 5.93499 34.1756 5.87285C34.1756 5.87285 34.1135 5.87285 34.0824 5.87285C33.9892 5.87285 33.9271 5.93499 33.8338 5.93499C33.9581 5.93499 33.7406 5.93499 33.7096 5.93499C33.6785 5.93499 33.6163 5.93499 33.5853 5.93499C33.5853 5.93499 33.5231 5.93499 33.4921 5.93499C33.5542 5.93499 33.5542 5.93499 33.4921 5.93499C33.3367 5.93499 33.2124 5.87285 33.0571 5.81071C32.9328 5.77964 33.1503 5.87285 33.026 5.81071C32.9949 5.81071 32.9638 5.77964 32.9017 5.74856C32.8396 5.71749 32.7463 5.65535 32.6842 5.62428C32.5599 5.56214 32.7463 5.68642 32.6531 5.62428C32.6531 5.62428 32.591 5.59321 32.591 5.56214C32.5288 5.49999 32.4978 5.46892 32.4356 5.40678C32.4356 5.40678 32.4046 5.37571 32.3735 5.34464C32.3113 5.28249 32.2803 5.18928 32.2492 5.09606C32.2492 5.06499 32.2492 5.03392 32.2181 4.97178C32.2181 4.90963 32.1871 4.81642 32.156 4.7232C32.156 4.53677 32.1249 4.35035 32.1249 4.16392C32.1249 3.82213 32.1871 3.48034 32.3113 3.2007C32.5599 2.61034 33.026 2.17534 33.6163 1.92677C34.8903 1.36748 36.3817 1.86462 37.3139 2.82784C38.2771 3.8532 38.681 5.31356 38.5567 6.71178C38.4014 8.35857 37.4692 9.81893 36.0089 10.5957C35.7914 10.6889 35.9467 11.0618 36.1642 10.9686C37.7178 10.3161 38.7431 8.82465 39.0228 7.17786C39.3024 5.56214 38.9296 3.8532 37.8731 2.57927C36.8167 1.33641 35.0767 0.714976 33.4921 1.24319C32.7463 1.49176 32.0938 1.98891 31.6899 2.67248C31.2549 3.4182 31.0996 4.44356 31.3481 5.28249C31.5656 6.05928 32.2492 6.64964 32.9949 6.89821C33.8338 7.17786 34.8281 6.89821 35.3874 6.18357C35.5739 5.96606 35.7292 5.71749 35.8224 5.43785C35.9156 5.25142 35.7603 5.00285 35.5739 4.9407C35.3563 4.84749 35.1699 4.9407 35.0456 5.12713V5.09606Z" fill="#CEA559"/>
<path d="M12.8293 9.84987C13.0158 10.0052 13.0779 10.1917 13.1711 10.4092C13.2643 10.5956 13.3265 10.782 13.3886 10.9995C13.4818 11.4035 13.4508 11.8385 13.3265 12.2113C13.0779 13.0813 12.3943 13.7027 11.5243 13.8892C11.369 13.9202 11.369 13.9202 11.2136 13.9202C11.0893 13.9202 10.934 13.9202 10.8097 13.9202C10.6543 13.9202 10.6543 13.9202 10.499 13.8892C10.3436 13.8892 10.2193 13.827 10.064 13.796C9.78431 13.7027 9.4736 13.8892 9.41145 14.1688C9.31824 14.4795 9.50467 14.7281 9.78431 14.8213C10.965 15.2874 12.3322 14.9767 13.2643 14.1688C14.1343 13.4231 14.5072 12.056 14.1343 10.9684C14.0411 10.6888 13.8858 10.4092 13.6993 10.1917C13.4818 9.94309 13.2333 9.88095 12.9225 9.75666C12.8293 9.72559 12.7361 9.8188 12.8293 9.88095V9.84987Z" fill="#CEA559"/>
<path d="M32.9948 10.9066C33.0881 10.7823 33.1502 10.658 33.2123 10.5337C33.2123 10.5026 33.2123 10.4405 33.2434 10.4094C33.2434 10.4094 33.3056 10.2541 33.2745 10.2851C33.2745 10.3473 33.3056 10.223 33.3056 10.1919C33.3056 10.1608 33.3366 10.0987 33.3677 10.0676C33.3677 10.0366 33.3988 10.0055 33.4298 9.97441C33.4298 9.97441 33.4609 9.91226 33.492 9.88119C33.7406 9.60155 34.0513 9.41512 34.3931 9.3219C35.232 9.07333 36.1952 9.22869 36.972 9.69476C37.4691 10.0055 37.8731 10.4716 38.1838 10.9687C38.3392 11.2483 38.712 10.9998 38.5877 10.7201C38.1216 9.63262 37.0652 8.85583 35.9466 8.60726C34.9524 8.38976 33.7716 8.51404 32.9638 9.16655C32.4977 9.53941 32.0938 10.1919 32.3423 10.7823C32.4356 10.9998 32.8084 11.0619 32.9638 10.8755L32.9948 10.9066Z" fill="#CEA559"/>
<path d="M10.7475 10.5956C10.8407 10.4403 10.8717 10.2539 10.9339 10.0674C10.9339 10.0674 10.9339 10.0053 10.965 9.97422C10.965 9.97422 10.996 9.91208 11.0271 9.881C11.0271 9.881 11.0892 9.78779 11.0582 9.81886C11.0271 9.84993 11.0582 9.78779 11.0892 9.78779C11.0892 9.78779 11.1203 9.75672 11.1514 9.72565C11.1514 9.72565 11.2135 9.6635 11.1825 9.72565C11.1514 9.72565 11.2135 9.72565 11.2446 9.69457C11.2446 9.69457 11.3068 9.69457 11.3378 9.6635C11.2757 9.6635 11.4 9.63243 11.3378 9.6635C11.4 9.6635 11.4621 9.63243 11.5243 9.60136C11.5243 9.60136 11.5864 9.60136 11.6175 9.60136C11.5553 9.60136 11.6796 9.60136 11.6175 9.60136C11.6175 9.60136 11.6175 9.60136 11.6485 9.60136C11.7107 9.60136 11.7728 9.60136 11.835 9.60136C11.866 9.60136 11.8971 9.60136 11.9282 9.60136C11.9282 9.60136 12.0525 9.60136 11.9593 9.60136C12.0214 9.60136 12.0835 9.60136 12.1457 9.63243C12.2078 9.63243 12.27 9.6635 12.3321 9.69457C12.3632 9.69457 12.3943 9.69457 12.4253 9.72565C12.4253 9.72565 12.4253 9.72565 12.4564 9.72565C12.3943 9.72565 12.5185 9.72565 12.4564 9.72565C12.5807 9.78779 12.6739 9.84993 12.7982 9.91208C13.0157 10.0674 13.2021 10.2539 13.3264 10.5024C13.4507 10.6889 13.7614 10.5646 13.6993 10.3471C13.3264 9.10422 11.4932 8.45171 10.4989 9.29064C10.1571 9.57029 9.87746 10.0985 10.0017 10.5646C10.095 10.8753 10.53 10.9374 10.6853 10.6578L10.7475 10.5956Z" fill="#CEA559"/>
<path d="M30.6955 9.07283C30.6644 8.85533 30.5091 8.69997 30.3537 8.57568C29.0176 7.61246 27.0291 8.57568 25.5998 8.82425C24.5744 9.01068 22.7101 8.8864 21.7158 8.57568C23.3626 9.38354 25.4444 10.3468 27.3087 10.5643C28.9244 10.7507 30.5712 10.5021 30.6955 9.25925C30.6955 9.19711 30.6955 9.13497 30.6955 9.07283Z" fill="#CEA559"/>
<path d="M21.4672 13.9826C21.3119 14.1069 21.0633 14.138 20.8769 14.1069C19.2611 13.8894 18.4222 11.8697 17.5833 10.689C16.9618 9.8501 15.5015 8.66938 14.5693 8.23438C16.3404 8.79366 18.5154 9.47724 20.0379 10.5958C21.3429 11.559 22.3994 12.8951 21.6226 13.8583C21.5915 13.8894 21.5294 13.9515 21.4983 13.9826H21.4672Z" fill="#CEA559"/>
<path d="M25.3199 6.27634C25.1335 6.05883 24.4188 5.90348 24.1392 5.87241C23.0828 5.77919 22.0885 6.27634 21.032 6.40062C19.0435 6.58705 17.987 6.40062 16.4956 5.90348C16.4956 5.90348 19.8203 7.58134 20.7835 7.86098C23.6421 8.73099 27.0289 8.14063 25.3199 6.27634Z" fill="#CEA559"/>
<path d="M22.2129 11.9004C24.2325 14.1997 28.4893 17.5243 31.4722 18.3633C35.1386 19.4197 38.8672 17.804 39.7062 14.1065C39.9237 13.1433 41.8812 14.4483 40.2033 16.934C37.904 20.3208 33.5851 21.4704 30.074 19.5129C27.899 18.3011 24.2636 15.3493 22.2129 11.9004Z" fill="#CEA559"/>
<path d="M23.3003 13.4541C23.3003 13.4541 27.7746 20.2898 33.7714 22.7134C38.1525 24.4845 38.1525 21.1288 32.9014 20.352C29.0485 19.7927 29.0796 17.8352 29.0796 17.8352" fill="#CEA559"/>
<path d="M38.4322 3.54215C37.7486 2.48572 37.034 2.17501 35.76 1.52251C34.6415 0.932146 32.9636 0.776788 31.9693 1.52251C31.4722 1.89536 31.0372 2.36144 30.6954 2.85858C30.4468 3.23144 29.9497 4.44323 29.3904 3.88394C28.2407 2.70322 31.2547 0 33.3054 0C35.6979 0 37.4379 1.55358 38.4322 3.54215Z" fill="#CEA559"/>
<path d="M5.52757 16.0949C5.52757 16.0638 5.52757 16.0328 5.55864 16.0017C5.55864 15.9396 5.62079 15.9085 5.65186 15.8463C5.65186 15.8153 5.714 15.7531 5.74507 15.7221C5.74507 15.7221 5.77614 15.6599 5.80721 15.6599C5.83829 15.6288 5.90043 15.5667 5.9315 15.5356C5.96257 15.5046 6.08686 15.4113 5.99364 15.5046C6.11793 15.4424 6.21114 15.3803 6.33543 15.3181C6.39757 15.2871 6.33543 15.3181 6.30436 15.3181C6.33543 15.3181 6.3665 15.3181 6.39757 15.2871C6.45972 15.2871 6.49079 15.256 6.55293 15.2249C6.61507 15.2249 6.67722 15.2249 6.73936 15.1938C6.73936 15.1938 6.86365 15.1938 6.77043 15.1938C6.67722 15.1938 6.77043 15.1938 6.8015 15.1938C6.92579 15.1938 7.05008 15.1938 7.17436 15.1938C7.2365 15.1938 7.14329 15.1938 7.14329 15.1938C7.17436 15.1938 7.20543 15.1938 7.2365 15.1938C7.29865 15.1938 7.36079 15.2249 7.45401 15.256C7.51615 15.256 7.54722 15.2871 7.60936 15.3181C7.45401 15.256 7.60936 15.3181 7.64043 15.3181C7.76472 15.3803 7.85794 15.4424 7.95115 15.5046C7.82686 15.4424 7.95115 15.5046 7.98222 15.5356C8.01329 15.5667 8.07544 15.6288 8.10651 15.6599C8.13758 15.691 8.16865 15.7221 8.19972 15.7842C8.19972 15.7842 8.23079 15.8463 8.26187 15.8774C8.19972 15.7842 8.23079 15.8463 8.26187 15.8774C8.35508 16.0017 8.44829 16.1571 8.54151 16.2813C8.60365 16.3746 8.47937 16.1881 8.57258 16.3435C8.60365 16.4056 8.63472 16.4367 8.6658 16.4988C8.72794 16.5921 8.79008 16.7163 8.85222 16.8406V16.9028C8.85222 16.9649 8.91437 17.0271 8.91437 17.1203C9.03865 17.5553 9.06973 18.0214 8.97651 18.4564C8.8833 18.9535 8.60365 19.3885 8.26187 19.7303C7.48508 20.5071 6.33543 20.8799 5.24793 20.8178C3.01078 20.6624 1.27077 18.6117 0.835768 16.4988C0.338624 14.1063 1.58149 11.6517 3.32149 10.067C4.19149 9.25918 5.21686 8.66882 6.27329 8.17167C7.51615 7.61239 8.85222 7.17739 10.1883 7.0531C10.5301 7.02203 10.9029 6.99096 11.2447 6.99096C11.9904 6.99096 11.9904 5.87238 11.2447 5.84131C9.66008 5.84131 8.04436 6.27631 6.584 6.89774C5.31007 7.42596 4.06721 8.10953 3.01078 9.01061C1.0222 10.7195 -0.376022 13.547 0.0900514 16.3435C0.493981 18.8603 2.5447 21.1906 5.15471 21.4703C6.42864 21.5946 7.73365 21.1906 8.69687 20.3828C9.66008 19.606 10.1262 18.3942 10.0329 17.1824C10.0019 16.5921 9.87759 15.8774 9.59794 15.3492C9.3183 14.8521 8.82115 14.386 8.29294 14.1063C7.08115 13.516 5.46543 13.8267 4.68864 14.9763C4.50221 15.256 4.40899 15.5978 4.37792 15.9396C4.37792 16.2192 4.6265 16.4678 4.87507 16.4988C5.15471 16.5299 5.43436 16.3746 5.4965 16.0949H5.52757Z" fill="#CEA559"/>
</svg>
